<mxfile host="Electron" modified="2024-07-02T18:09:19.418Z" agent="Mozilla/5.0 (Windows NT 10.0; Win64; x64) AppleWebKit/537.36 (KHTML, like Gecko) draw.io/24.2.5 Chrome/120.0.6099.109 Electron/28.1.0 Safari/537.36" etag="wth7liT2KHg9XXi5z7a2" version="24.2.5" type="device">
  <diagram name="PÃ¡gina-1" id="4msT0vv4pdND9azRW5vc">
    <mxGraphModel dx="2100" dy="1258" grid="1" gridSize="10" guides="1" tooltips="1" connect="1" arrows="1" fold="1" page="1" pageScale="1" pageWidth="827" pageHeight="1169" math="0" shadow="0">
      <root>
        <mxCell id="0" />
        <mxCell id="1" parent="0" />
        <mxCell id="NtpWOEAYPCwUQHESP8Rl-2" value="Home screen" style="swimlane;whiteSpace=wrap;html=1;" vertex="1" parent="1">
          <mxGeometry x="154" y="15" width="520" height="310" as="geometry" />
        </mxCell>
        <mxCell id="NtpWOEAYPCwUQHESP8Rl-5" value="" style="edgeStyle=orthogonalEdgeStyle;rounded=0;orthogonalLoop=1;jettySize=auto;html=1;" edge="1" parent="NtpWOEAYPCwUQHESP8Rl-2" source="NtpWOEAYPCwUQHESP8Rl-3" target="NtpWOEAYPCwUQHESP8Rl-4">
          <mxGeometry relative="1" as="geometry" />
        </mxCell>
        <mxCell id="NtpWOEAYPCwUQHESP8Rl-12" value="GET /health" style="edgeLabel;html=1;align=center;verticalAlign=middle;resizable=0;points=[];" vertex="1" connectable="0" parent="NtpWOEAYPCwUQHESP8Rl-5">
          <mxGeometry x="0.0389" y="1" relative="1" as="geometry">
            <mxPoint as="offset" />
          </mxGeometry>
        </mxCell>
        <mxCell id="NtpWOEAYPCwUQHESP8Rl-7" value="" style="edgeStyle=orthogonalEdgeStyle;rounded=0;orthogonalLoop=1;jettySize=auto;html=1;" edge="1" parent="NtpWOEAYPCwUQHESP8Rl-2" source="NtpWOEAYPCwUQHESP8Rl-3" target="NtpWOEAYPCwUQHESP8Rl-6">
          <mxGeometry relative="1" as="geometry" />
        </mxCell>
        <mxCell id="NtpWOEAYPCwUQHESP8Rl-11" value="GET /health" style="edgeLabel;html=1;align=center;verticalAlign=middle;resizable=0;points=[];" vertex="1" connectable="0" parent="NtpWOEAYPCwUQHESP8Rl-7">
          <mxGeometry x="0.001" y="-1" relative="1" as="geometry">
            <mxPoint as="offset" />
          </mxGeometry>
        </mxCell>
        <mxCell id="NtpWOEAYPCwUQHESP8Rl-3" value="frontend" style="rounded=1;whiteSpace=wrap;html=1;" vertex="1" parent="NtpWOEAYPCwUQHESP8Rl-2">
          <mxGeometry x="199" y="70" width="120" height="60" as="geometry" />
        </mxCell>
        <mxCell id="NtpWOEAYPCwUQHESP8Rl-4" value="reader" style="whiteSpace=wrap;html=1;rounded=1;" vertex="1" parent="NtpWOEAYPCwUQHESP8Rl-2">
          <mxGeometry x="319" y="190" width="120" height="60" as="geometry" />
        </mxCell>
        <mxCell id="NtpWOEAYPCwUQHESP8Rl-6" value="writer" style="whiteSpace=wrap;html=1;rounded=1;" vertex="1" parent="NtpWOEAYPCwUQHESP8Rl-2">
          <mxGeometry x="79" y="190" width="120" height="60" as="geometry" />
        </mxCell>
        <mxCell id="NtpWOEAYPCwUQHESP8Rl-13" value="Reader screen" style="swimlane;whiteSpace=wrap;html=1;" vertex="1" parent="1">
          <mxGeometry x="154" y="365" width="520" height="370" as="geometry" />
        </mxCell>
        <mxCell id="NtpWOEAYPCwUQHESP8Rl-14" value="" style="edgeStyle=orthogonalEdgeStyle;rounded=0;orthogonalLoop=1;jettySize=auto;html=1;" edge="1" parent="NtpWOEAYPCwUQHESP8Rl-13" source="NtpWOEAYPCwUQHESP8Rl-18" target="NtpWOEAYPCwUQHESP8Rl-19">
          <mxGeometry relative="1" as="geometry" />
        </mxCell>
        <mxCell id="NtpWOEAYPCwUQHESP8Rl-15" value="GET /data" style="edgeLabel;html=1;align=center;verticalAlign=middle;resizable=0;points=[];" vertex="1" connectable="0" parent="NtpWOEAYPCwUQHESP8Rl-14">
          <mxGeometry x="0.0389" y="1" relative="1" as="geometry">
            <mxPoint as="offset" />
          </mxGeometry>
        </mxCell>
        <mxCell id="NtpWOEAYPCwUQHESP8Rl-21" value="Redis" style="shape=cylinder3;whiteSpace=wrap;html=1;boundedLbl=1;backgroundOutline=1;size=15;" vertex="1" parent="NtpWOEAYPCwUQHESP8Rl-13">
          <mxGeometry x="345" y="210" width="60" height="80" as="geometry" />
        </mxCell>
        <mxCell id="NtpWOEAYPCwUQHESP8Rl-18" value="frontend" style="rounded=1;whiteSpace=wrap;html=1;" vertex="1" parent="NtpWOEAYPCwUQHESP8Rl-13">
          <mxGeometry x="85" y="80" width="120" height="60" as="geometry" />
        </mxCell>
        <mxCell id="NtpWOEAYPCwUQHESP8Rl-25" style="edgeStyle=orthogonalEdgeStyle;rounded=0;orthogonalLoop=1;jettySize=auto;html=1;" edge="1" parent="NtpWOEAYPCwUQHESP8Rl-13" source="NtpWOEAYPCwUQHESP8Rl-19" target="NtpWOEAYPCwUQHESP8Rl-21">
          <mxGeometry relative="1" as="geometry" />
        </mxCell>
        <mxCell id="NtpWOEAYPCwUQHESP8Rl-26" value="Get SHAREKEY value" style="edgeLabel;html=1;align=center;verticalAlign=middle;resizable=0;points=[];" vertex="1" connectable="0" parent="NtpWOEAYPCwUQHESP8Rl-25">
          <mxGeometry x="-0.0989" y="1" relative="1" as="geometry">
            <mxPoint as="offset" />
          </mxGeometry>
        </mxCell>
        <mxCell id="NtpWOEAYPCwUQHESP8Rl-19" value="reader" style="whiteSpace=wrap;html=1;rounded=1;" vertex="1" parent="NtpWOEAYPCwUQHESP8Rl-13">
          <mxGeometry x="315" y="80" width="120" height="60" as="geometry" />
        </mxCell>
        <mxCell id="NtpWOEAYPCwUQHESP8Rl-27" value="Reader screen" style="swimlane;whiteSpace=wrap;html=1;" vertex="1" parent="1">
          <mxGeometry x="154" y="785" width="520" height="370" as="geometry" />
        </mxCell>
        <mxCell id="NtpWOEAYPCwUQHESP8Rl-28" value="" style="edgeStyle=orthogonalEdgeStyle;rounded=0;orthogonalLoop=1;jettySize=auto;html=1;" edge="1" parent="NtpWOEAYPCwUQHESP8Rl-27" source="NtpWOEAYPCwUQHESP8Rl-31" target="NtpWOEAYPCwUQHESP8Rl-34">
          <mxGeometry relative="1" as="geometry" />
        </mxCell>
        <mxCell id="NtpWOEAYPCwUQHESP8Rl-29" value="POST /write" style="edgeLabel;html=1;align=center;verticalAlign=middle;resizable=0;points=[];" vertex="1" connectable="0" parent="NtpWOEAYPCwUQHESP8Rl-28">
          <mxGeometry x="0.0389" y="1" relative="1" as="geometry">
            <mxPoint as="offset" />
          </mxGeometry>
        </mxCell>
        <mxCell id="NtpWOEAYPCwUQHESP8Rl-30" value="Redis" style="shape=cylinder3;whiteSpace=wrap;html=1;boundedLbl=1;backgroundOutline=1;size=15;" vertex="1" parent="NtpWOEAYPCwUQHESP8Rl-27">
          <mxGeometry x="345" y="210" width="60" height="80" as="geometry" />
        </mxCell>
        <mxCell id="NtpWOEAYPCwUQHESP8Rl-31" value="frontend" style="rounded=1;whiteSpace=wrap;html=1;" vertex="1" parent="NtpWOEAYPCwUQHESP8Rl-27">
          <mxGeometry x="85" y="80" width="120" height="60" as="geometry" />
        </mxCell>
        <mxCell id="NtpWOEAYPCwUQHESP8Rl-32" style="edgeStyle=orthogonalEdgeStyle;rounded=0;orthogonalLoop=1;jettySize=auto;html=1;" edge="1" parent="NtpWOEAYPCwUQHESP8Rl-27" source="NtpWOEAYPCwUQHESP8Rl-34" target="NtpWOEAYPCwUQHESP8Rl-30">
          <mxGeometry relative="1" as="geometry" />
        </mxCell>
        <mxCell id="NtpWOEAYPCwUQHESP8Rl-33" value="Set SHAREKEY value" style="edgeLabel;html=1;align=center;verticalAlign=middle;resizable=0;points=[];" vertex="1" connectable="0" parent="NtpWOEAYPCwUQHESP8Rl-32">
          <mxGeometry x="-0.0989" y="1" relative="1" as="geometry">
            <mxPoint as="offset" />
          </mxGeometry>
        </mxCell>
        <mxCell id="NtpWOEAYPCwUQHESP8Rl-34" value="writer" style="whiteSpace=wrap;html=1;rounded=1;" vertex="1" parent="NtpWOEAYPCwUQHESP8Rl-27">
          <mxGeometry x="315" y="80" width="120" height="60" as="geometry" />
        </mxCell>
      </root>
    </mxGraphModel>
  </diagram>
</mxfile>
